<svg width="302" height="61" viewBox="0 0 302 61" fill="none" xmlns="http://www.w3.org/2000/svg">
<g clip-path="url(#clip0_1_96)">
<path d="M128.663 18.6633C130.219 17.106 132.066 15.8705 134.1 15.0276C136.133 14.1846 138.313 13.7508 140.514 13.7508C142.715 13.7508 144.895 14.1846 146.928 15.0276C148.962 15.8705 150.809 17.106 152.365 18.6633M152.337 42.3367C150.781 43.894 148.934 45.1295 146.9 45.9724C144.867 46.8153 142.687 47.2492 140.486 47.2492C138.285 47.2492 136.105 46.8153 134.072 45.9724C132.038 45.1295 130.191 43.894 128.635 42.3367M120.763 10.7629C125.998 5.52935 133.098 2.5893 140.5 2.5893C147.902 2.5893 155.002 5.52935 160.237 10.7629M160.237 50.2371C155.002 55.4707 147.902 58.4107 140.5 58.4107C133.098 58.4107 125.998 55.4707 120.763 50.2371M140.5 24.9167C143.584 24.9167 146.083 27.4164 146.083 30.5C146.083 33.5836 143.584 36.0833 140.5 36.0833C137.416 36.0833 134.917 33.5836 134.917 30.5C134.917 27.4164 137.416 24.9167 140.5 24.9167Z" stroke="white" stroke-width="3" stroke-linecap="square" stroke-linejoin="round"/>
<path d="M236.481 42.2506L235.222 47.4813L222.556 0H225.296L236.481 42.2506ZM239.259 32.0471L237.889 37.1304L228.074 0H230.778L239.259 32.0471ZM242.037 21.4752L240.63 26.6322L233.556 0H236.333L242.037 21.4752ZM252.593 61H249.815L266.037 0.0736715L266 0H268.815V0.0736715L276.037 24.8273L282.667 0H285.444L269.185 61H266.407L259.148 36.2832L252.593 61ZM247.037 61H244.296L260.519 0H263.259L247.037 61ZM241.519 61H238.778L255.037 0H257.741L241.519 61ZM285.778 61H283L299.222 0H302L285.778 61ZM280.222 61H277.481L293.704 0H296.444L280.222 61ZM274.704 61H271.963L288.222 0H290.926L274.704 61ZM234.63 55.7693L249.481 0H252.259L236 61H233.222L217 0H219.778L234.63 55.7693ZM260.556 31.0894L267.741 55.9903L269.148 50.7228L261.926 25.8955L260.556 31.0894ZM263.296 20.7017L270.519 45.529L271.926 40.3351L264.704 15.471L263.296 20.7017ZM266.037 10.3877L273.296 35.215L274.667 29.9843L267.481 5.08333L266.037 10.3877Z" fill="white"/>
<path d="M174 2.65217V0H213V2.65217H174ZM174 7.95652V5.30435H213V7.95652H174ZM174 13.2609V10.6087H213V13.2609H202.6V61H200V13.2609H197.4V61H194.8V13.2609H192.2V61H189.6V13.2609H187V61H184.4V13.2609H174Z" fill="white"/>
<path d="M87.2285 24.4H83.1736C81.4534 24.4 80.2135 23.9594 79.4539 23.0783C78.6943 22.1746 78.3145 20.9885 78.3145 19.52C78.3145 16.2667 80.7162 14.64 85.5194 14.64C90.0322 14.64 93.428 15.3178 95.7068 16.6733L93.7631 18.1644C92.1993 17.4415 89.4514 17.08 85.5194 17.08C83.5981 17.08 82.3024 17.2946 81.6321 17.7239C80.9843 18.1531 80.6603 18.7519 80.6603 19.52C80.6603 20.2881 80.839 20.8869 81.1965 21.3161C81.5539 21.7454 82.213 21.96 83.1736 21.96H87.329C90.345 21.96 93.0594 22.4796 95.4722 23.5189C97.9073 24.5581 99.9068 25.9815 101.471 27.7889C103.035 29.5737 104.23 31.6409 105.056 33.9906C105.883 36.3176 106.296 38.8141 106.296 41.48C106.296 43.6489 105.995 45.7048 105.391 47.6478C104.788 49.5907 103.872 51.3756 102.644 53.0022C101.437 54.6289 99.9739 56.0409 98.2536 57.2383C96.5557 58.4131 94.5227 59.3281 92.1546 59.9833C89.8088 60.6611 87.262 61 84.5141 61C80.2023 61 76.1587 60.3335 72.3831 59.0006C68.6299 57.6902 65.5022 55.8489 63 53.4767L64.9436 52.0194C67.2224 54.098 70.0708 55.7133 73.489 56.8656C76.9294 57.9952 80.6045 58.56 84.5141 58.56C87.5748 58.56 90.3338 58.1194 92.7913 57.2383C95.2711 56.3346 97.3041 55.1033 98.8903 53.5444C100.499 51.9856 101.728 50.1781 102.577 48.1222C103.448 46.0663 103.883 43.8522 103.883 41.48C103.883 38.3396 103.258 35.5043 102.007 32.9739C100.756 30.4209 98.8456 28.3537 96.2765 26.7722C93.7296 25.1907 90.7136 24.4 87.2285 24.4ZM83.1736 26.84H86.9939C91.5291 26.84 95.0701 28.2407 97.6169 31.0422C100.186 33.8437 101.471 37.323 101.471 41.48C101.471 45.7048 99.985 49.2067 97.0137 51.9856C94.0424 54.7419 89.8759 56.12 84.5141 56.12C80.9396 56.12 77.5996 55.623 74.4943 54.6289C71.3889 53.6348 68.8086 52.2341 66.7532 50.4267L68.6299 48.9017C70.4618 50.4154 72.7629 51.5902 75.5331 52.4261C78.3257 53.262 81.3194 53.68 84.5141 53.68C89.228 53.68 92.8248 52.5391 95.3046 50.2572C97.8068 47.9754 99.0579 45.0496 99.0579 41.48C99.0579 37.9556 98.0079 35.0411 95.9078 32.7367C93.8302 30.4322 90.8477 29.28 86.9604 29.28H83.1736C79.9119 29.28 77.4656 28.3763 75.8347 26.5689C74.2039 24.7615 73.3884 22.4119 73.3884 19.52C73.3884 16.6281 74.3938 14.2785 76.4044 12.4711C78.4374 10.6637 81.4758 9.76 85.5194 9.76C88.3567 9.76 90.9929 10.0989 93.428 10.7767C95.8632 11.4319 97.8738 12.3807 99.46 13.6233L97.5499 15.1144C94.7573 13.1715 90.7471 12.2 85.5194 12.2C82.146 12.2 79.6773 12.8778 78.1135 14.2333C76.572 15.5663 75.8012 17.3285 75.8012 19.52C75.8012 21.7341 76.3709 23.5076 77.5103 24.8406C78.672 26.1735 80.5598 26.84 83.1736 26.84ZM83.1736 31.72H86.8599C90.1216 31.72 92.5679 32.635 94.1988 34.465C95.8297 36.295 96.6451 38.6333 96.6451 41.48C96.6451 44.3719 95.6286 46.7215 93.5956 48.5289C91.5849 50.3363 88.5578 51.24 84.5141 51.24C81.6768 51.24 79.0294 50.9124 76.572 50.2572C74.1368 49.5794 72.1262 48.6193 70.54 47.3767L72.4501 45.8856C75.2427 47.8285 79.264 48.8 84.5141 48.8C87.8875 48.8 90.345 48.1335 91.8865 46.8006C93.4504 45.445 94.2323 43.6715 94.2323 41.48C94.2323 39.2885 93.6514 37.5263 92.4897 36.1933C91.328 34.8378 89.4402 34.16 86.8264 34.16H83.1736C78.5938 34.16 75.0081 32.7819 72.4166 30.0256C69.8474 27.2467 68.5628 23.7448 68.5628 19.52C68.5628 15.2952 70.0485 11.8046 73.0198 9.04833C75.9911 6.26944 80.1577 4.88 85.5194 4.88C89.0939 4.88 92.4227 5.37704 95.5057 6.37111C98.6111 7.36519 101.191 8.76593 103.247 10.5733L101.37 12.0983C99.5382 10.5846 97.2371 9.40982 94.4669 8.57389C91.6966 7.73796 88.7141 7.32 85.5194 7.32C80.8055 7.32 77.1975 8.46093 74.6954 10.7428C72.2155 13.0246 70.9756 15.9504 70.9756 19.52C70.9756 23.067 72.0256 25.9928 74.1257 28.2972C76.2257 30.5791 79.2417 31.72 83.1736 31.72ZM83.1736 36.6H86.8599C88.5801 36.6 89.82 37.0519 90.5796 37.9556C91.3392 38.8593 91.719 40.0341 91.719 41.48C91.719 44.7333 89.3173 46.36 84.5141 46.36C79.9789 46.36 76.572 45.6822 74.2932 44.3267L76.2369 42.8356C77.8007 43.5585 80.5598 43.92 84.5141 43.92C86.4354 43.92 87.72 43.7054 88.3679 43.2761C89.0381 42.8469 89.3732 42.2481 89.3732 41.48C89.3732 40.7344 89.1833 40.147 88.8035 39.7178C88.4461 39.2659 87.7758 39.04 86.7928 39.04H83.1736C80.0906 39.04 77.298 38.5317 74.7959 37.515C72.3161 36.4983 70.2719 35.0976 68.6634 33.3128C67.0772 31.528 65.8596 29.4607 65.0107 27.1111C64.1617 24.7615 63.7372 22.2311 63.7372 19.52C63.7372 17.3511 64.0388 15.2952 64.642 13.3522C65.2452 11.4093 66.15 9.62444 67.3564 7.99778C68.5852 6.37111 70.0485 4.97037 71.7464 3.79556C73.4666 2.59815 75.4996 1.67185 77.8454 1.01667C80.2135 0.338889 82.7715 0 85.5194 0C89.8312 0 93.8637 0.666482 97.6169 1.99944C101.37 3.30981 104.498 5.15111 107 7.52333L105.056 8.98056C102.778 6.90204 99.9292 5.29796 96.511 4.16833C93.0929 3.01611 89.429 2.44 85.5194 2.44C82.4587 2.44 79.6885 2.89185 77.2087 3.79556C74.7512 4.67667 72.7182 5.89667 71.1097 7.45556C69.5235 9.01444 68.2947 10.8219 67.4235 12.8778C66.5745 14.9337 66.15 17.1478 66.15 19.52C66.15 22.7056 66.7867 25.5748 68.0602 28.1278C69.3336 30.6807 71.2772 32.7367 73.8911 34.2956C76.505 35.8319 79.5991 36.6 83.1736 36.6Z" fill="white"/>
<path d="M45.8605 29.2461H48.2884V58.56H45.8605V29.2461ZM55.5721 29.2461H58V58.56H55.5721V29.2461ZM50.7163 29.2461H53.1442V58.56H50.7163V29.2461ZM43.4326 29.2461V58.56C39.1612 60.1867 34.7326 61 30.1465 61C26.1674 61 22.357 60.2657 18.7151 58.7972C15.0733 57.3287 11.8698 55.2954 9.10465 52.6972C6.33953 50.0765 4.12519 46.8457 2.46163 43.005C0.820543 39.1417 0 34.9733 0 30.5C0 26.3656 0.798062 22.4231 2.39419 18.6728C4.01279 14.8998 6.17093 11.6578 8.8686 8.94667C11.5888 6.21296 14.8147 4.04407 18.5465 2.44C22.3008 0.813333 26.2349 0 30.3488 0C35.4744 0 40.2403 1.19741 44.6465 3.59222C49.0527 5.98704 52.6496 9.24037 55.4372 13.3522L53.414 14.6739C50.8512 10.9009 47.5353 7.9187 43.4663 5.72722C39.4198 3.53574 35.0473 2.44 30.3488 2.44C26.5721 2.44 22.9527 3.18556 19.4907 4.67667C16.0512 6.14519 13.0837 8.13333 10.5884 10.6411C8.09302 13.1489 6.10349 16.1424 4.61977 19.6217C3.15853 23.0783 2.42791 26.7044 2.42791 30.5C2.42791 34.5893 3.18101 38.4074 4.68721 41.9544C6.21589 45.5015 8.23915 48.4724 10.757 50.8672C13.2973 53.262 16.2422 55.1485 19.5919 56.5267C22.9415 57.8822 26.426 58.56 30.0453 58.56C33.8446 58.56 37.4977 57.9613 41.0047 56.7639V54.4256C37.655 55.5552 34.1368 56.12 30.45 56.12C27.7748 56.12 25.1671 55.7472 22.6267 55.0017C20.1089 54.2335 17.7709 53.1152 15.6128 51.6467C13.4771 50.1556 11.6 48.3933 9.9814 46.36C8.38527 44.3041 7.12636 41.9206 6.20465 39.2094C5.30543 36.4757 4.85581 33.5726 4.85581 30.5C4.85581 25.8685 5.99109 21.5872 8.26163 17.6561C10.5547 13.725 13.657 10.6185 17.5686 8.33667C21.4802 6.03222 25.7403 4.88 30.3488 4.88C34.6651 4.88 38.6779 5.89667 42.3872 7.93C46.0965 9.94074 49.1202 12.6744 51.4581 16.1311L49.4349 17.4528C47.3217 14.335 44.5791 11.8724 41.207 10.065C37.8574 8.235 34.238 7.32 30.3488 7.32C27.224 7.32 24.2341 7.93 21.3791 9.15C18.524 10.37 16.0624 12.0193 13.9942 14.0978C11.9484 16.1537 10.3186 18.6163 9.10465 21.4856C7.8907 24.3548 7.28372 27.3596 7.28372 30.5C7.28372 33.3241 7.68837 35.9787 8.49767 38.4639C9.32946 40.9265 10.4647 43.0841 11.9035 44.9367C13.3647 46.7667 15.062 48.3481 16.9953 49.6811C18.9287 50.9915 21.0306 51.9856 23.3012 52.6633C25.5942 53.3411 27.9434 53.68 30.3488 53.68C34.0806 53.68 37.6326 53.0474 41.0047 51.7822V49.3422C37.6775 50.63 34.2043 51.2739 30.5849 51.2739C27.8422 51.2739 25.2233 50.8107 22.7279 49.8844C20.2326 48.9356 18.007 47.6026 16.0512 45.8856C14.1178 44.1685 12.5779 41.977 11.4314 39.3111C10.2849 36.6452 9.71163 33.7081 9.71163 30.5C9.71163 26.7496 10.6333 23.2817 12.4767 20.0961C14.3202 16.9106 16.8267 14.3915 19.9965 12.5389C23.1663 10.6863 26.6171 9.76 30.3488 9.76C33.8333 9.76 37.0705 10.5733 40.0605 12.2C43.0729 13.8267 45.5233 16.0407 47.4116 18.8422L45.3884 20.1639C43.7248 17.7239 41.5667 15.7922 38.914 14.3689C36.2837 12.923 33.4287 12.2 30.3488 12.2C27.0442 12.2 23.9981 13.0246 21.2105 14.6739C18.4229 16.3006 16.2085 18.5146 14.5674 21.3161C12.9488 24.1176 12.1395 27.1789 12.1395 30.5C12.1395 32.8044 12.4655 34.9507 13.1174 36.9389C13.7694 38.927 14.6686 40.6441 15.8151 42.09C16.9616 43.5359 18.2992 44.7672 19.8279 45.7839C21.3791 46.8006 23.0426 47.5687 24.8186 48.0883C26.5946 48.5854 28.438 48.8339 30.3488 48.8339C34.1481 48.8339 37.7 48.077 41.0047 46.5633V44.225C37.8124 45.6483 34.3616 46.36 30.6523 46.36C28.5167 46.36 26.5047 46.0324 24.6163 45.3772C22.7279 44.722 21.0194 43.7619 19.4907 42.4967C17.9845 41.2315 16.7818 39.5709 15.8826 37.515C15.0058 35.4365 14.5674 33.0981 14.5674 30.5C14.5674 28.3537 14.9833 26.3091 15.8151 24.3661C16.6469 22.4006 17.7709 20.7061 19.1872 19.2828C20.6035 17.8594 22.2783 16.7298 24.2116 15.8939C26.1674 15.058 28.2132 14.64 30.3488 14.64C33.024 14.64 35.5081 15.2726 37.8012 16.5378C40.0942 17.7804 41.9601 19.4748 43.3988 21.6211L41.4093 22.9428C40.1953 21.1354 38.6105 19.712 36.6547 18.6728C34.7213 17.6109 32.6194 17.08 30.3488 17.08C26.662 17.08 23.5147 18.3904 20.907 21.0111C18.2992 23.6319 16.9953 26.7948 16.9953 30.5C16.9953 32.7819 17.3663 34.8039 18.1081 36.5661C18.85 38.3057 19.8616 39.7065 21.143 40.7683C22.4469 41.8076 23.8857 42.5983 25.4593 43.1406C27.0554 43.6602 28.764 43.92 30.5849 43.92C34.3167 43.92 37.7899 43.1406 41.0047 41.5817V29.2461H43.4326Z" fill="white"/>
</g>
<defs>
<clipPath id="clip0_1_96">
<rect width="302" height="61" fill="white"/>
</clipPath>
</defs>
</svg>
